<svg xmlns="http://www.w3.org/2000/svg" viewBox="0 0 630 630" fill="none"><defs><clipPath id="a"><path d="M582 161L315 7 48 161l267 154 267-154z"/></clipPath><clipPath id="b"><path d="M315 315L48 161v308l267 154V315z"/></clipPath></defs><path fill="#5fc5f5" d="M582 161v308L315 623V315l267-154z"/><path d="M315 315v308L48 469V161l267 154zM582 161L315 315 48 161 315 7l267 154z"/><g clip-path="url(#a)" fill="#5fc5f5"><path d="M241 42l17-29 297 171-17 29z"/><path d="M158 232L455 60l17 30-297 171z"/><path d="M258 309l-17-30 142-82-131-75-159 92-17-30L252 82l199 115-193 112z"/></g><g clip-path="url(#b)"><path fill="#5fc5f5" d="M164 221h35v342h-35zm-48 291l-91-53 17-30 40 23V173h34v339zm131-243h34v342h-34z"/></g><path fill="#fff" d="M399 536l1-3-1-1h-9l-1-1a7 7 0 00-3 0 13 13 0 00-3 1l-2 1c-1 1-2 1-2 3s-1 2-2 3l-1-1a5 5 0 00-1-2l-3 2c-1 1-1 1-1-1a6 6 0 000-1 2 2 0 011-3c1 0 2-1 2 1l1 1a2717 2717 0 012-14c3-5 6-9 10-12l4-4 5-4 7-5c0-1 0-2 2-2a6 6 0 002-1 7 7 0 001-2l5-8a16 16 0 011-2l4-8 4-8 4-11 3-7v-5l-1-4-2-5-2-6-1-4a7 7 0 00-4-3c-4 0-8-1-10-5a41 41 0 00-5-5 9 9 0 00-3-1l-5-4a8 8 0 01-2-4 25 25 0 000-4l3-10 2-9 2-6a4 4 0 000-1l-2-9c0-3-1-5-3-6h-4l-7-1a12 12 0 01-2-2 1 1 0 010-1 42 42 0 012-4h1a9 9 0 012 1l2-3a11 11 0 010-1 7 7 0 01-1-1 8 8 0 012-2h1a10 10 0 001 0l3-4a3 3 0 002-2 13 13 0 011-3 3 3 0 001-2 51 51 0 010-8 79 79 0 012-9c0-3 1-7 3-10l2-4 3-1a3 3 0 014 1l3-1 1-1a4 4 0 011 1l5 1 2-1 4-1 4-1c2-1 2 0 1 2l-1 3a6 6 0 010 2 12 12 0 01-1 1v2l3-2 4-2a6 6 0 002-2l1-3 2-2c1-3 2-2 4-3v5 2l1 4-1 2a21 21 0 00-2 2v2l-2 1v1c1 0 2 0 1 2a7 7 0 012 0 5 5 0 013 2h2l2-2c1-1 1-3 3-3v2c2-1 3-1 3 1v2a43 43 0 007-11v-4-1-2-2a16 16 0 01-1-3 6 6 0 012-2v-3h-2l-3 4h-1v-2a1 1 0 001 0l3-4a6 6 0 002-2 28 28 0 013-7 2 2 0 011 0 28 28 0 014-3 5 5 0 003-4c1-3 0-5-1-6l-1-1a10 10 0 00-2 1c-2 0-2-1-2-4a7 7 0 012-3c1-2 2-5 5-6 0-2 1-3 4-5v-1l2-4a14 14 0 002-3v-3a6 6 0 012-2l6-2h2c1 1 2-1 3-2a4 4 0 013-2 4 4 0 001-1l5-5a7 7 0 014-2 12 12 0 003-1l1 1a2 2 0 001 1c1 0 2 1 1 2l-1 5-1 9v14l-2 4c-3 2-3 5-4 8a3 3 0 000 2 4 4 0 010 3c1 1 3-2 4 0h2a25 25 0 011 4 1 1 0 01-1 1l-5 5h1a2 2 0 011 2 11 11 0 002 7 6 6 0 010 4 35 35 0 01-1 4l-2 4 1 3a1 1 0 011 1 58 58 0 012 5h3a7 7 0 01-1 2 4 4 0 01-3 2l-2 2a8 8 0 01-1 5 5 5 0 000 1c-3 2-5 2-6 0l-1 1h-3l-5 1-3 4v6l-2 9a5 5 0 000 1v1l-2 2a7 7 0 00-2 5l-1 5v1c2 0 2 1 1 3v1c0 2-1 3-3 4a5 5 0 00-2 2 4 4 0 01-2 3 5 5 0 01-1 0l-4 7a14 14 0 01-1 2l-2 2-4 2-1-1-1 2-4 3-4 12a23 23 0 013 0v1l-2 12-1 6c-1 1 0 1 1 1a14 14 0 002-1 3 3 0 001-2l3-10 2-9 4 3c0-2 1-2 2-2v1a10 10 0 010 3h1v-1c0-2 1-2 2-2h3l3-3 1 2 2-1 1 1 1 1a8 8 0 002-2l1-1a1 1 0 011 1 38 38 0 010 4h1l1 4 1 5a4 4 0 000 1 9 9 0 011 4 62 62 0 000 8l1 12a9 9 0 000 2l1 11 5-1a3 3 0 001-1l5-6a6 6 0 012-1l7-2a18 18 0 012-1 1 1 0 011 1 23 23 0 010 2l1 4a11 11 0 010 2 14 14 0 01-2 0l-5 2-4 2v4l6-2a50 50 0 015-1l1 1v6a3 3 0 010 1l-4 1-1 1-5 1a26 26 0 00-2 2 7 7 0 010 1 2 2 0 01-2 2l-6 1-10 5-10 5a23 23 0 00-5 3l-1 2-6 6a39 39 0 01-4 4l-6 7a5 5 0 01-1 0l-7 5-1 1-7 5-4 5-8 12-4 5a15 15 0 00-1 4l-4 11-28-9z"/></svg>
